<svg width="442" height="467" viewBox="0 0 442 467" fill="none" xmlns="http://www.w3.org/2000/svg">
<rect width="442" height="467" fill="white"/>
<path fill-rule="evenodd" clip-rule="evenodd" d="M216.501 169.67V258.131H327.896V169.67H216.501ZM291.403 169.67H272.197H252.991C252.991 178.094 261.59 184.922 272.197 184.922C282.804 184.922 291.403 178.094 291.403 169.67Z" fill="#DF2517"/>
<path fill-rule="evenodd" clip-rule="evenodd" d="M290.822 173.41C290.822 173.41 290.822 173.41 290.822 173.41C291.201 172.213 291.403 170.961 291.403 169.67H252.991C252.991 170.961 253.193 172.213 253.572 173.41C253.572 173.41 253.572 173.41 253.573 173.41C255.672 180.026 263.215 184.922 272.197 184.922C281.179 184.922 288.722 180.026 290.822 173.41ZM249.642 173.41C251.789 182.578 261.694 188.662 272.197 188.662C282.7 188.662 292.605 182.578 294.752 173.41H324.119V254.391H220.278V173.41H249.642ZM327.896 169.67V258.131H216.501V169.67H327.896Z" fill="white"/>
<path fill-rule="evenodd" clip-rule="evenodd" d="M186.423 99.2304H262.369V55C245.684 55 228.97 60.7158 215.486 68.3726C202.442 61.3099 186.523 56.1225 170.632 56.1225V99.0671H186.424C186.423 99.1217 186.423 99.1762 186.423 99.2304Z" fill="#FFD700"/>
<path fill-rule="evenodd" clip-rule="evenodd" d="M262.369 99.2304V55C260.237 55 258.104 55.0934 255.977 55.2722C241.465 56.4926 227.247 61.6943 215.486 68.3726C204.192 62.2576 190.744 57.5484 177.023 56.3947C174.897 56.2159 172.764 56.1225 170.632 56.1225V99.0671H186.424C186.423 99.1217 186.423 99.1762 186.423 99.2304H262.369ZM192.933 92.8697H255.977V61.6577C242.782 62.8654 229.668 67.6428 218.653 73.8971L215.56 75.6538L212.431 73.9598C201.872 68.2422 189.486 63.9205 177.023 62.7801V92.7064H192.937L192.933 92.8697Z" fill="white"/>
<path d="M62.8064 369.891C67.0246 369.283 71.4862 368.978 76.1912 368.978C82.2752 368.978 86.8382 370.195 89.8802 372.629C92.9222 375.022 94.4432 378.51 94.4432 383.093C94.4432 388.163 92.9627 391.996 90.0018 394.592C87.0815 397.188 82.7416 398.486 76.9821 398.486C74.6296 398.486 72.703 398.405 71.2023 398.242V414H62.8064V369.891ZM71.2023 391.672C72.7436 391.915 74.4065 392.037 76.1912 392.037C79.4765 392.037 81.971 391.327 83.6745 389.907C85.4186 388.447 86.2906 386.379 86.2906 383.702C86.2906 378.307 82.9241 375.61 76.1912 375.61C74.366 375.61 72.703 375.732 71.2023 375.975V391.672ZM115.124 369.587V396.478C115.124 403.901 118.025 407.612 123.825 407.612C129.665 407.612 132.586 403.901 132.586 396.478V369.587H140.981V395.931C140.981 402.096 139.481 406.76 136.479 409.924C133.518 413.047 129.26 414.608 123.703 414.608C118.146 414.608 113.887 413.047 110.927 409.924C107.966 406.76 106.485 402.096 106.485 395.931V369.587H115.124ZM164.47 396.661V414H156.075V369.891C160.212 369.283 164.673 368.978 169.459 368.978C175.422 368.978 179.883 370.094 182.844 372.325C185.805 374.515 187.285 377.618 187.285 381.633C187.285 384.553 186.495 387.109 184.913 389.299C183.371 391.489 181.262 393.01 178.585 393.862V393.984C180.532 395.119 182.215 397.533 183.635 401.224L188.502 414H179.741L175.117 401.406C174.387 399.459 173.556 398.182 172.623 397.573C171.69 396.965 170.088 396.661 167.817 396.661H164.47ZM164.47 390.212H168.06C175.28 390.212 178.89 387.636 178.89 382.485C178.89 377.902 175.543 375.61 168.851 375.61C167.188 375.61 165.728 375.732 164.47 375.975V390.212ZM210.305 376.462V387.352H228.131V393.862H210.305V407.125H229.348V414H201.788V369.587H229.348V376.462H210.305Z" fill="#DF2517"/>
<path d="M244.107 399.581V393.132H263.759V399.581H244.107Z" fill="black"/>
<path d="M279.133 369.587H306.085V376.462H287.651V388.143H304.868V394.714H287.651V414H279.133V369.587ZM322.082 414V369.587H331.391V414H322.082ZM380.828 369.587V376.644H368.113V414H359.474V376.644H346.758V369.587H380.828Z" fill="#FFD700"/>
<path d="M62.8064 369.891L62.52 367.905L60.8001 368.153V369.891H62.8064ZM89.8802 372.629L88.6268 374.195L88.6332 374.201L88.6397 374.206L89.8802 372.629ZM90.0018 394.592L88.6792 393.083L88.6689 393.093L90.0018 394.592ZM71.2023 398.242L71.4179 396.248L69.196 396.008V398.242H71.2023ZM71.2023 414V416.006H73.2086V414H71.2023ZM62.8064 414H60.8001V416.006H62.8064V414ZM71.2023 391.672H69.196V393.386L70.8894 393.653L71.2023 391.672ZM83.6745 389.907L84.9589 391.449L84.9624 391.446L83.6745 389.907ZM71.2023 375.975L70.8811 373.995L69.196 374.268V375.975H71.2023ZM63.0928 371.877C67.207 371.283 71.5723 370.985 76.1912 370.985V366.972C71.4001 366.972 66.8422 367.282 62.52 367.905L63.0928 371.877ZM76.1912 370.985C82.0608 370.985 86.0918 372.167 88.6268 374.195L91.1335 371.062C87.5846 368.223 82.4895 366.972 76.1912 366.972V370.985ZM88.6397 374.206C91.1065 376.146 92.4369 378.998 92.4369 383.093H96.4495C96.4495 378.022 94.7378 373.897 91.1206 371.052L88.6397 374.206ZM92.4369 383.093C92.4369 387.763 91.0879 390.972 88.6792 393.083L91.3245 396.101C94.8376 393.021 96.4495 388.564 96.4495 383.093H92.4369ZM88.6689 393.093C86.2564 395.237 82.4781 396.48 76.9821 396.48V400.492C83.0051 400.492 87.9066 399.139 91.3348 396.092L88.6689 393.093ZM76.9821 396.48C74.6667 396.48 72.8191 396.399 71.4179 396.248L70.9866 400.237C72.5869 400.41 74.5925 400.492 76.9821 400.492V396.48ZM69.196 398.242V414H73.2086V398.242H69.196ZM71.2023 411.994H62.8064V416.006H71.2023V411.994ZM64.8127 414V369.891H60.8001V414H64.8127ZM70.8894 393.653C72.5476 393.915 74.3163 394.043 76.1912 394.043V390.03C74.4967 390.03 72.9395 389.915 71.5152 389.69L70.8894 393.653ZM76.1912 394.043C79.7272 394.043 82.7565 393.284 84.9589 391.449L82.3901 388.366C81.1855 389.37 79.2259 390.03 76.1912 390.03V394.043ZM84.9624 391.446C87.2441 389.535 88.2969 386.856 88.2969 383.702H84.2843C84.2843 385.901 83.593 387.359 82.3866 388.369L84.9624 391.446ZM88.2969 383.702C88.2969 380.563 87.2954 377.89 85.0202 376.067C82.8299 374.312 79.7725 373.604 76.1912 373.604V377.616C79.3428 377.616 81.3351 378.256 82.5113 379.199C83.6025 380.073 84.2843 381.446 84.2843 383.702H88.2969ZM76.1912 373.604C74.279 373.604 72.5066 373.731 70.8811 373.995L71.5234 377.955C72.8994 377.732 74.4529 377.616 76.1912 377.616V373.604ZM69.196 375.975V391.672H73.2086V375.975H69.196ZM115.124 369.587H117.131V367.581H115.124V369.587ZM132.586 369.587V367.581H130.579V369.587H132.586ZM140.981 369.587H142.988V367.581H140.981V369.587ZM136.479 409.924L135.024 408.543L135.023 408.543L136.479 409.924ZM110.927 409.924L109.462 411.295L109.471 411.304L110.927 409.924ZM106.485 369.587V367.581H104.479V369.587H106.485ZM113.118 369.587V396.478H117.131V369.587H113.118ZM113.118 396.478C113.118 400.396 113.874 403.703 115.719 406.064C117.637 408.518 120.465 409.618 123.825 409.618V405.606C121.384 405.606 119.862 404.85 118.88 403.593C117.825 402.242 117.131 399.983 117.131 396.478H113.118ZM123.825 409.618C127.199 409.618 130.042 408.522 131.972 406.069C133.83 403.708 134.592 400.398 134.592 396.478H130.579C130.579 399.981 129.881 402.238 128.819 403.588C127.828 404.846 126.291 405.606 123.825 405.606V409.618ZM134.592 396.478V369.587H130.579V396.478H134.592ZM132.586 371.593H140.981V367.581H132.586V371.593ZM138.975 369.587V395.931H142.988V369.587H138.975ZM138.975 395.931C138.975 401.795 137.548 405.882 135.024 408.543L137.935 411.305C141.414 407.638 142.988 402.396 142.988 395.931H138.975ZM135.023 408.543C132.544 411.159 128.878 412.602 123.703 412.602V416.615C129.641 416.615 134.493 414.935 137.935 411.304L135.023 408.543ZM123.703 412.602C118.528 412.602 114.862 411.159 112.383 408.543L109.471 411.304C112.913 414.935 117.764 416.615 123.703 416.615V412.602ZM112.391 408.553C109.902 405.893 108.492 401.802 108.492 395.931H104.479C104.479 402.39 106.03 407.627 109.462 411.295L112.391 408.553ZM108.492 395.931V369.587H104.479V395.931H108.492ZM106.485 371.593H115.124V367.581H106.485V371.593ZM164.47 396.661V394.654H162.464V396.661H164.47ZM164.47 414V416.006H166.477V414H164.47ZM156.075 414H154.068V416.006H156.075V414ZM156.075 369.891L155.783 367.906L154.068 368.158V369.891H156.075ZM182.844 372.325L181.637 373.927L181.644 373.932L181.651 373.938L182.844 372.325ZM184.913 389.299L183.286 388.124L183.279 388.134L183.272 388.144L184.913 389.299ZM178.585 393.862L177.977 391.95L176.579 392.395V393.862H178.585ZM178.585 393.984H176.579V395.136L177.574 395.717L178.585 393.984ZM183.635 401.224L185.51 400.509L185.508 400.503L183.635 401.224ZM188.502 414V416.006H191.414L190.377 413.286L188.502 414ZM179.741 414L177.858 414.691L178.341 416.006H179.741V414ZM175.117 401.406L177.001 400.715L176.996 400.702L175.117 401.406ZM172.623 397.573L171.527 399.254L171.527 399.254L172.623 397.573ZM164.47 390.212H162.464V392.218H164.47V390.212ZM164.47 375.975L164.089 374.005L162.464 374.32V375.975H164.47ZM162.464 396.661V414H166.477V396.661H162.464ZM164.47 411.994H156.075V416.006H164.47V411.994ZM158.081 414V369.891H154.068V414H158.081ZM156.366 371.876C160.394 371.284 164.757 370.985 169.459 370.985V366.972C164.589 366.972 160.029 367.282 155.783 367.906L156.366 371.876ZM169.459 370.985C175.231 370.985 179.179 372.075 181.637 373.927L184.051 370.722C180.588 368.113 175.612 366.972 169.459 366.972V370.985ZM181.651 373.938C184.049 375.712 185.279 378.187 185.279 381.633H189.292C189.292 377.048 187.561 373.318 184.037 370.712L181.651 373.938ZM185.279 381.633C185.279 384.168 184.601 386.304 183.286 388.124L186.539 390.474C188.388 387.913 189.292 384.939 189.292 381.633H185.279ZM183.272 388.144C181.996 389.958 180.258 391.224 177.977 391.95L179.194 395.774C182.266 394.796 184.747 393.021 186.553 390.454L183.272 388.144ZM176.579 393.862V393.984H180.592V393.862H176.579ZM177.574 395.717C178.925 396.504 180.396 398.391 181.763 401.944L185.508 400.503C184.035 396.675 182.14 393.734 179.596 392.251L177.574 395.717ZM181.76 401.938L186.627 414.714L190.377 413.286L185.51 400.509L181.76 401.938ZM188.502 411.994H179.741V416.006H188.502V411.994ZM181.625 413.309L177.001 400.715L173.234 402.098L177.858 414.691L181.625 413.309ZM176.996 400.702C176.228 398.654 175.208 396.864 173.719 395.893L171.527 399.254C171.904 399.5 172.547 400.265 173.239 402.111L176.996 400.702ZM173.719 395.893C172.264 394.944 170.147 394.654 167.817 394.654V398.667C170.029 398.667 171.116 398.986 171.527 399.254L173.719 395.893ZM167.817 394.654H164.47V398.667H167.817V394.654ZM164.47 392.218H168.06V388.205H164.47V392.218ZM168.06 392.218C171.848 392.218 175.049 391.553 177.347 389.913C179.771 388.184 180.896 385.589 180.896 382.485H176.883C176.883 384.532 176.203 385.8 175.017 386.647C173.706 387.582 171.492 388.205 168.06 388.205V392.218ZM180.896 382.485C180.896 379.632 179.811 377.247 177.514 375.673C175.353 374.194 172.364 373.604 168.851 373.604V377.616C172.031 377.616 174.061 378.172 175.246 378.984C176.295 379.702 176.883 380.755 176.883 382.485H180.896ZM168.851 373.604C167.096 373.604 165.503 373.732 164.089 374.005L164.852 377.945C165.953 377.732 167.28 377.616 168.851 377.616V373.604ZM162.464 375.975V390.212H166.477V375.975H162.464ZM210.305 376.462V374.455H208.299V376.462H210.305ZM210.305 387.352H208.299V389.358H210.305V387.352ZM228.131 387.352H230.138V385.346H228.131V387.352ZM228.131 393.862V395.868H230.138V393.862H228.131ZM210.305 393.862V391.856H208.299V393.862H210.305ZM210.305 407.125H208.299V409.131H210.305V407.125ZM229.348 407.125H231.355V405.119H229.348V407.125ZM229.348 414V416.006H231.355V414H229.348ZM201.788 414H199.781V416.006H201.788V414ZM201.788 369.587V367.581H199.781V369.587H201.788ZM229.348 369.587H231.355V367.581H229.348V369.587ZM229.348 376.462V378.468H231.355V376.462H229.348ZM208.299 376.462V387.352H212.312V376.462H208.299ZM210.305 389.358H228.131V385.346H210.305V389.358ZM226.125 387.352V393.862H230.138V387.352H226.125ZM228.131 391.856H210.305V395.868H228.131V391.856ZM208.299 393.862V407.125H212.312V393.862H208.299ZM210.305 409.131H229.348V405.119H210.305V409.131ZM227.342 407.125V414H231.355V407.125H227.342ZM229.348 411.994H201.788V416.006H229.348V411.994ZM203.794 414V369.587H199.781V414H203.794ZM201.788 371.593H229.348V367.581H201.788V371.593ZM227.342 369.587V376.462H231.355V369.587H227.342ZM229.348 374.455H210.305V378.468H229.348V374.455ZM244.107 399.581H242.101V401.587H244.107V399.581ZM244.107 393.132V391.126H242.101V393.132H244.107ZM263.759 393.132H265.765V391.126H263.759V393.132ZM263.759 399.581V401.587H265.765V399.581H263.759ZM246.113 399.581V393.132H242.101V399.581H246.113ZM244.107 395.138H263.759V391.126H244.107V395.138ZM261.752 393.132V399.581H265.765V393.132H261.752ZM263.759 397.575H244.107V401.587H263.759V397.575ZM279.133 369.587V367.581H277.127V369.587H279.133ZM306.085 369.587H308.091V367.581H306.085V369.587ZM306.085 376.462V378.468H308.091V376.462H306.085ZM287.651 376.462V374.455H285.644V376.462H287.651ZM287.651 388.143H285.644V390.149H287.651V388.143ZM304.868 388.143H306.875V386.137H304.868V388.143ZM304.868 394.714V396.72H306.875V394.714H304.868ZM287.651 394.714V392.707H285.644V394.714H287.651ZM287.651 414V416.006H289.657V414H287.651ZM279.133 414H277.127V416.006H279.133V414ZM279.133 371.593H306.085V367.581H279.133V371.593ZM304.079 369.587V376.462H308.091V369.587H304.079ZM306.085 374.455H287.651V378.468H306.085V374.455ZM285.644 376.462V388.143H289.657V376.462H285.644ZM287.651 390.149H304.868V386.137H287.651V390.149ZM302.862 388.143V394.714H306.875V388.143H302.862ZM304.868 392.707H287.651V396.72H304.868V392.707ZM285.644 394.714V414H289.657V394.714H285.644ZM287.651 411.994H279.133V416.006H287.651V411.994ZM281.139 414V369.587H277.127V414H281.139ZM322.082 414H320.076V416.006H322.082V414ZM322.082 369.587V367.581H320.076V369.587H322.082ZM331.391 369.587H333.397V367.581H331.391V369.587ZM331.391 414V416.006H333.397V414H331.391ZM324.089 414V369.587H320.076V414H324.089ZM322.082 371.593H331.391V367.581H322.082V371.593ZM329.384 369.587V414H333.397V369.587H329.384ZM331.391 411.994H322.082V416.006H331.391V411.994ZM380.828 369.587H382.835V367.581H380.828V369.587ZM380.828 376.644V378.651H382.835V376.644H380.828ZM368.113 376.644V374.638H366.107V376.644H368.113ZM368.113 414V416.006H370.119V414H368.113ZM359.474 414H357.467V416.006H359.474V414ZM359.474 376.644H361.48V374.638H359.474V376.644ZM346.758 376.644H344.752V378.651H346.758V376.644ZM346.758 369.587V367.581H344.752V369.587H346.758ZM378.822 369.587V376.644H382.835V369.587H378.822ZM380.828 374.638H368.113V378.651H380.828V374.638ZM366.107 376.644V414H370.119V376.644H366.107ZM368.113 411.994H359.474V416.006H368.113V411.994ZM361.48 414V376.644H357.467V414H361.48ZM359.474 374.638H346.758V378.651H359.474V374.638ZM348.764 376.644V369.587H344.752V376.644H348.764ZM346.758 371.593H380.828V367.581H346.758V371.593Z" fill="white"/>
<path d="M92 123.687C92 107.014 105.55 93.4971 122.266 93.4971H176.365V165.576H92V123.687Z" fill="#DF2517"/>
<path fill-rule="evenodd" clip-rule="evenodd" d="M169.177 100.667H122.266C109.52 100.667 99.1881 110.974 99.1881 123.687V158.406H169.177V100.667ZM122.266 93.4971C105.55 93.4971 92 107.014 92 123.687V165.576H176.365V93.4971H122.266Z" fill="white"/>
<path d="M340.95 124.08C340.977 107.479 327.542 93.998 310.94 93.9702L257.209 93.8803L257.089 165.648L340.88 165.788L340.95 124.08Z" fill="#DF2517"/>
<path fill-rule="evenodd" clip-rule="evenodd" d="M264.336 101.031L310.928 101.109C323.587 101.131 333.832 111.41 333.811 124.068L333.753 158.637L264.24 158.521L264.336 101.031ZM310.94 93.9702C327.542 93.998 340.977 107.479 340.95 124.08L340.88 165.788L257.089 165.648L257.209 93.8803L310.94 93.9702Z" fill="white"/>
<path fill-rule="evenodd" clip-rule="evenodd" d="M125.127 165.574C116.783 165.574 110.02 172.333 110.02 180.671V254.854H146.286C146.241 246.354 154.753 239.397 165.38 239.283C176.067 239.169 184.846 246.02 184.988 254.585C184.988 254.585 180.725 254.728 174.562 254.854H221.415V165.574H125.127Z" fill="#DF2517"/>
<path fill-rule="evenodd" clip-rule="evenodd" d="M174.562 254.854C180.725 254.728 184.988 254.585 184.988 254.585C184.986 254.441 184.981 254.298 184.974 254.155C184.856 251.827 184.099 249.634 182.842 247.683C182.799 247.615 182.754 247.548 182.709 247.48C179.406 242.536 172.86 239.203 165.38 239.283C154.809 239.396 146.33 246.282 146.286 254.721C146.286 254.765 146.286 254.81 146.286 254.854H110.02V180.671C110.02 172.333 116.783 165.574 125.127 165.574H221.415V254.854H174.562ZM190.895 247.683H214.239V172.745H125.127C120.747 172.745 117.196 176.294 117.196 180.671V247.683H140.378C143.981 238.072 154.708 232.226 165.303 232.112C176.104 231.997 187.211 237.834 190.895 247.683Z" fill="white"/>
<path fill-rule="evenodd" clip-rule="evenodd" d="M221.415 250.761H110.02V324.944C110.02 333.281 116.783 340.041 125.127 340.041H221.415V310.794C210.808 310.793 202.21 303.902 202.21 295.401C202.21 286.9 210.808 280.008 221.415 280.008V250.761Z" fill="#DF2517"/>
<path fill-rule="evenodd" clip-rule="evenodd" d="M213.483 258.687H117.951V324.944C117.951 328.904 121.164 332.115 125.127 332.115H213.483V317.675C203.147 314.931 194.278 306.932 194.278 295.401C194.278 283.87 203.147 275.87 213.483 273.127V258.687ZM221.415 280.008C210.808 280.008 202.21 286.9 202.21 295.401C202.21 303.902 210.808 310.793 221.415 310.794V340.041H125.127C116.783 340.041 110.02 333.281 110.02 324.944V250.761H221.415V280.008Z" fill="white"/>
<path fill-rule="evenodd" clip-rule="evenodd" d="M173.907 93.4971H257.453V165.576H173.907V141.964C181.862 141.964 188.311 136.4 188.311 129.537C188.311 122.673 181.862 117.11 173.907 117.109V93.4971ZM257.452 129.537V141.964C249.497 141.964 243.048 136.4 243.048 129.537C243.048 122.673 249.497 117.109 257.452 117.109V129.537Z" fill="#DF2517"/>
<path fill-rule="evenodd" clip-rule="evenodd" d="M250.693 140.514C250.693 140.514 250.693 140.514 250.693 140.514C252.709 141.44 255.01 141.964 257.452 141.964V117.109C255.01 117.109 252.709 117.634 250.693 118.56C250.693 118.56 250.693 118.56 250.693 118.56C246.144 120.649 243.048 124.781 243.048 129.537C243.048 134.293 246.144 138.425 250.693 140.514ZM250.693 111.337C242.749 113.788 236.288 120.463 236.288 129.537C236.288 138.611 242.749 145.286 250.693 147.737V158.778H180.666V147.737C188.61 145.285 195.07 138.61 195.07 129.537C195.07 120.463 188.61 113.788 180.666 111.337V100.296H250.693V111.337ZM257.453 93.4971V165.576H173.907V141.964C181.862 141.964 188.311 136.4 188.311 129.537C188.311 122.673 181.862 117.11 173.907 117.109V93.4971H257.453Z" fill="white"/>
<path fill-rule="evenodd" clip-rule="evenodd" d="M215.681 165.574H311.261C319.543 165.574 326.257 172.333 326.257 180.671V194.821C315.729 194.822 307.194 201.713 307.194 210.214C307.194 218.715 315.729 225.607 326.257 225.607V254.854H215.681V225.607C226.209 225.606 234.744 218.715 234.744 210.214C234.744 201.714 226.209 194.822 215.681 194.821V165.574Z" fill="#DF2517"/>
<path fill-rule="evenodd" clip-rule="evenodd" d="M215.681 165.574H311.261C319.543 165.574 326.257 172.333 326.257 180.671V194.821C315.729 194.822 307.194 201.713 307.194 210.214C307.194 218.715 315.729 225.607 326.257 225.607V254.854H215.681V225.607C226.209 225.606 234.744 218.715 234.744 210.214C234.744 201.714 226.209 194.822 215.681 194.821V165.574ZM222.43 188.819C232.677 191.237 241.492 199.045 241.492 210.214C241.492 221.383 232.677 229.192 222.43 231.609V248.06H319.509V231.61C309.26 229.192 300.445 221.384 300.445 210.214C300.445 199.045 309.26 191.236 319.509 188.819V180.671C319.509 176.085 315.816 172.368 311.261 172.368H222.43V188.819Z" fill="white"/>
<path fill-rule="evenodd" clip-rule="evenodd" d="M216.501 252.4V341.68H306.746C318.427 341.68 327.896 332.217 327.896 320.544V252.4H216.501ZM291.403 252.4H272.197H252.991C252.991 260.902 261.59 267.793 272.197 267.793C282.804 267.793 291.403 260.902 291.403 252.4Z" fill="#DF2517"/>
<path fill-rule="evenodd" clip-rule="evenodd" d="M289.436 259.194C289.436 259.194 289.436 259.194 289.436 259.193C290.696 257.145 291.403 254.839 291.403 252.4H252.991C252.991 254.839 253.698 257.145 254.958 259.193C254.958 259.194 254.958 259.194 254.958 259.194C258.089 264.288 264.632 267.793 272.197 267.793C279.762 267.793 286.305 264.288 289.436 259.194ZM247.378 259.193C250.883 268.783 261.619 274.587 272.197 274.587C282.775 274.587 293.511 268.783 297.017 259.193H321.098V320.544C321.098 328.465 314.672 334.886 306.746 334.886H223.299V259.193H247.378ZM327.896 252.4V320.544C327.896 332.217 318.427 341.68 306.746 341.68H216.501V252.4H327.896Z" fill="white"/>
<path d="M184.556 254.856C184.556 263.45 175.939 270.418 165.308 270.418C154.677 270.418 146.06 263.45 146.06 254.856C146.06 246.261 154.677 239.293 165.308 239.293C175.939 239.293 184.556 246.261 184.556 254.856Z" fill="#DF2517"/>
<path d="M187.835 129.536C187.835 136.322 181.417 141.822 173.501 141.822C165.585 141.822 159.167 136.322 159.167 129.536C159.167 122.751 165.585 117.25 173.501 117.25C181.417 117.25 187.835 122.751 187.835 129.536Z" fill="#DF2517"/>
<path d="M245.127 129.745C245.115 136.49 251.583 141.968 259.573 141.981C267.562 141.995 274.048 136.538 274.059 129.794C274.07 123.049 267.603 117.571 259.613 117.558C251.624 117.544 245.138 123.001 245.127 129.745Z" fill="#DF2517"/>
<path d="M234.521 210.216C234.521 218.585 226.087 225.369 215.683 225.369C205.278 225.369 196.844 218.585 196.844 210.216C196.844 201.848 205.278 195.063 215.683 195.063C226.087 195.063 234.521 201.848 234.521 210.216Z" fill="#DF2517"/>
<path d="M291.855 252.809C291.855 261.178 283.237 267.962 272.607 267.962C261.976 267.962 253.358 261.178 253.358 252.809C253.358 244.44 261.976 237.656 272.607 237.656C283.237 237.656 291.855 244.44 291.855 252.809Z" fill="#DF2517"/>
<path d="M239.678 295.153C239.678 303.522 231.243 310.306 220.839 310.306C210.434 310.306 202 303.522 202 295.153C202 286.784 210.434 280 220.839 280C231.243 280 239.678 286.784 239.678 295.153Z" fill="#DF2517"/>
</svg>
