<svg width="66" height="76" viewBox="0 0 66 76" fill="none" xmlns="http://www.w3.org/2000/svg">
<path fill-rule="evenodd" clip-rule="evenodd" d="M41 30C36.5817 30 33 33.5817 33 38V46C33 50.4183 36.5817 54 41 54H54C58.4183 54 62 50.4183 62 46V38C62 33.5817 58.4183 30 54 30H41ZM49.6435 33.7394C52.2133 32.7285 50.261 30.0001 47.4996 30.0001V30.0001V30.0001C44.7382 30.0001 42.7859 32.7285 45.3557 33.7394C46.0054 33.995 46.7323 34.138 47.4996 34.138C48.2669 34.138 48.9938 33.995 49.6435 33.7394Z" fill="#DF2517"/>
<path fill-rule="evenodd" clip-rule="evenodd" d="M25.1311 12H45V0C40.635 0 36.2622 1.55073 32.7346 3.62807C29.3221 1.71191 25.1575 0.304533 21 0.304533V11.9557H25.1316C25.1313 11.9705 25.1311 11.9853 25.1311 12Z" fill="#FFD700"/>
<path fill-rule="evenodd" clip-rule="evenodd" d="M45 12V0C44.4422 0 43.8842 0.0253275 43.3279 0.0738449C39.5311 0.404965 35.8114 1.81621 32.7346 3.62807C29.78 1.96903 26.2616 0.691385 22.6721 0.378381C22.1158 0.329873 21.5579 0.304533 21 0.304533V11.9557H25.1316C25.1313 11.9705 25.1311 11.9853 25.1311 12H45ZM26.8345 10.2743H43.3279V1.80627C39.8757 2.13392 36.4448 3.43007 33.5633 5.12692L32.7539 5.60352L31.9354 5.14391C29.1729 3.59271 25.9325 2.42018 22.6721 2.1108V10.23H26.8353L26.8345 10.2743Z" fill="white"/>
<path d="M0 17.9581C0 13.563 3.53354 10 7.89238 10H22V29H0V17.9581Z" fill="#DF2517"/>
<path fill-rule="evenodd" clip-rule="evenodd" d="M20.1256 11.8901H7.89238C4.56876 11.8901 1.87444 14.6068 1.87444 17.9581V27.1099H20.1256V11.8901ZM7.89238 10C3.53354 10 0 13.563 0 17.9581V29H22V10H7.89238Z" fill="white"/>
<path d="M65.9867 18.3104C65.994 13.91 62.4328 10.3368 58.0324 10.3294L43.7903 10.3056L43.7584 29.3283L65.9682 29.3655L65.9867 18.3104Z" fill="#DF2517"/>
<path fill-rule="evenodd" clip-rule="evenodd" d="M45.6794 12.2011L58.0292 12.2217C61.3845 12.2274 64.1 14.9519 64.0944 18.3072L64.079 27.47L45.6539 27.4392L45.6794 12.2011ZM58.0324 10.3294C62.4328 10.3368 65.994 13.91 65.9867 18.3104L65.9682 29.3655L43.7584 29.3283L43.7903 10.3056L58.0324 10.3294Z" fill="white"/>
<path fill-rule="evenodd" clip-rule="evenodd" d="M8.933 29C6.76086 29 5 30.817 5 33.0583V53H14.4414C14.4298 50.7151 16.6457 48.8448 19.4122 48.8142C22.1944 48.7835 24.4798 50.6252 24.5169 52.9277C24.5169 52.9277 23.407 52.9661 21.8027 53H34V29H8.933Z" fill="#DF2517"/>
<path fill-rule="evenodd" clip-rule="evenodd" d="M21.8027 53C23.407 52.9661 24.5169 52.9277 24.5169 52.9277C24.5163 52.889 24.5151 52.8505 24.5132 52.8121C24.4825 52.1862 24.2856 51.5966 23.9583 51.0723C23.9469 51.0541 23.9354 51.0359 23.9237 51.0178C23.0638 49.6887 21.3597 48.7928 19.4122 48.8142C16.6602 48.8446 14.453 50.6956 14.4414 52.9642C14.4414 52.9761 14.4414 52.9881 14.4414 53H5V33.0583C5 30.817 6.76086 29 8.933 29H34V53H21.8027ZM26.0547 51.0723H32.1318V30.9277H8.933C7.79263 30.9277 6.86817 31.8816 6.86817 33.0583V51.0723H12.9033C13.8414 48.4886 16.6341 46.9171 19.3923 46.8866C22.204 46.8556 25.0957 48.4246 26.0547 51.0723Z" fill="white"/>
<path fill-rule="evenodd" clip-rule="evenodd" d="M34 52H5V71.9417C5 74.183 6.76086 76 8.933 76H34V68.138C31.2387 68.1378 29.0003 66.2853 29.0003 64C29.0003 61.7148 31.2387 59.8623 34 59.8621V52Z" fill="#DF2517"/>
<path fill-rule="evenodd" clip-rule="evenodd" d="M31.9352 54.1306H7.06482V71.9417C7.06482 73.0063 7.90123 73.8694 8.933 73.8694H31.9352V69.9877C29.2444 69.2502 26.9355 67.0998 26.9355 64C26.9355 60.9003 29.2444 58.7499 31.9352 58.0124V54.1306ZM34 59.8621C31.2387 59.8623 29.0003 61.7148 29.0003 64C29.0003 66.2853 31.2387 68.1378 34 68.138V76H8.933C6.76086 76 5 74.183 5 71.9417V52H34V59.8621Z" fill="white"/>
<path fill-rule="evenodd" clip-rule="evenodd" d="M22 10H44V29H22V22.7759C24.0948 22.7759 25.793 21.3092 25.793 19.5C25.793 17.6909 24.0948 16.2242 22 16.2242V10ZM43.9998 19.5V22.7759C41.9049 22.7759 40.2067 21.3093 40.2067 19.5C40.2067 17.6908 41.9049 16.2242 43.9998 16.2242V19.5Z" fill="#DF2517"/>
<path fill-rule="evenodd" clip-rule="evenodd" d="M42.2198 22.3936C42.2199 22.3936 42.22 22.3936 42.22 22.3937C42.7508 22.6376 43.3566 22.7759 43.9998 22.7759V16.2242C43.3566 16.2242 42.7508 16.3624 42.22 16.6064C42.22 16.6065 42.2199 16.6065 42.2198 16.6065C41.0221 17.1572 40.2067 18.2464 40.2067 19.5C40.2067 20.7537 41.0221 21.8429 42.2198 22.3936ZM42.22 14.7025C40.1282 15.3485 38.4267 17.1082 38.4267 19.5C38.4267 21.8919 40.1282 23.6515 42.22 24.2976V27.2079H23.78V24.2975C25.8717 23.6514 27.573 21.8918 27.573 19.5C27.573 17.1083 25.8717 15.3487 23.78 14.7026V11.7921H42.22V14.7025ZM44 10V29H22V22.7759C24.0948 22.7759 25.793 21.3092 25.793 19.5C25.793 17.6909 24.0948 16.2242 22 16.2242V10H44Z" fill="white"/>
<path fill-rule="evenodd" clip-rule="evenodd" d="M33 29H58.067C60.2391 29 62 30.817 62 33.0583V36.8621C59.2387 36.8623 57.0003 38.7148 57.0003 41C57.0003 43.2853 59.2387 45.1378 62 45.138V53H33V45.138C35.7611 45.1377 37.9994 43.2852 37.9994 41C37.9994 38.7149 35.7611 36.8624 33 36.8621V29Z" fill="#DF2517"/>
<path fill-rule="evenodd" clip-rule="evenodd" d="M33 29H58.067C60.2391 29 62 30.817 62 33.0583V36.8621C59.2387 36.8623 57.0003 38.7148 57.0003 41C57.0003 43.2853 59.2387 45.1378 62 45.138V53H33V45.138C35.7611 45.1377 37.9994 43.2852 37.9994 41C37.9994 38.7149 35.7611 36.8624 33 36.8621V29ZM34.7698 35.2487C37.4575 35.8986 39.7692 37.9976 39.7692 41C39.7692 44.0024 37.4575 46.1015 34.7698 46.7514V51.1737H60.2302V46.7515C57.5424 46.1017 55.2305 44.0026 55.2305 41C55.2305 37.9975 57.5424 35.8984 60.2302 35.2486V33.0583C60.2302 31.8256 59.2617 30.8263 58.067 30.8263H34.7698V35.2487Z" fill="white"/>
<path fill-rule="evenodd" clip-rule="evenodd" d="M33 52V76H57.3039C60.4498 76 63 73.4562 63 70.3183V52H33ZM53.172 52.0001H47.9996H42.8272C42.8272 54.2854 45.1429 56.138 47.9996 56.138C50.8562 56.138 53.172 54.2854 53.172 52.0001Z" fill="#DF2517"/>
<path fill-rule="evenodd" clip-rule="evenodd" d="M52.6423 53.8264C52.6423 53.8263 52.6423 53.8263 52.6424 53.8263C52.9815 53.2755 53.172 52.6556 53.172 52.0001H42.8272C42.8272 52.6556 43.0177 53.2755 43.3568 53.8263C43.3569 53.8263 43.3569 53.8263 43.3569 53.8264C44.2002 55.1958 45.9624 56.138 47.9996 56.138C50.0368 56.138 51.799 55.1958 52.6423 53.8264ZM41.3154 53.8263C42.2594 56.4042 45.1507 57.9643 47.9996 57.9643C50.8485 57.9643 53.7398 56.4042 54.6838 53.8263H61.1691V70.3183C61.1691 72.4476 59.4386 74.1737 57.3039 74.1737H34.8309V53.8263H41.3154ZM63 52V70.3183C63 73.4562 60.4498 76 57.3039 76H33V52H63Z" fill="white"/>
<path d="M25 53C25 55.2091 22.5376 57 19.5 57C16.4624 57 14 55.2091 14 53C14 50.7909 16.4624 49 19.5 49C22.5376 49 25 50.7909 25 53Z" fill="#DF2517"/>
<path d="M25 19.5C25 21.433 23.433 23 21.5 23C19.567 23 18 21.433 18 19.5C18 17.567 19.567 16 21.5 16C23.433 16 25 17.567 25 19.5Z" fill="#DF2517"/>
<path d="M40.5877 19.8119C40.5847 21.5996 42.299 23.0516 44.4167 23.0552C46.5344 23.0587 48.2536 21.6124 48.2565 19.8247C48.2595 18.0371 46.5452 16.585 44.4275 16.5815C42.3099 16.5779 40.5907 18.0242 40.5877 19.8119Z" fill="#DF2517"/>
<path d="M38 41C38 43.2091 35.7614 45 33 45C30.2386 45 28 43.2091 28 41C28 38.7909 30.2386 37 33 37C35.7614 37 38 38.7909 38 41Z" fill="#DF2517"/>
<path d="M53 52C53 54.2091 50.7614 56 48 56C45.2386 56 43 54.2091 43 52C43 49.7909 45.2386 48 48 48C50.7614 48 53 49.7909 53 52Z" fill="#DF2517"/>
<path d="M39 64C39 66.2091 36.7614 68 34 68C31.2386 68 29 66.2091 29 64C29 61.7909 31.2386 60 34 60C36.7614 60 39 61.7909 39 64Z" fill="#DF2517"/>
</svg>
